<svg width="256" height="256" viewBox="0 0 256 256" fill="none" xmlns="http://www.w3.org/2000/svg">
<defs>
  <linearGradient id="whale" x1="52" y1="48" x2="184" y2="206" gradientUnits="userSpaceOnUse"><stop stop-color="#55D9FF"/><stop offset="0.58" stop-color="#00BBF9"/><stop offset="1" stop-color="#087EBA"/></linearGradient>
  <linearGradient id="belly" x1="96" y1="118" x2="150" y2="205" gradientUnits="userSpaceOnUse"><stop stop-color="#FFF5F8"/><stop offset="1" stop-color="#F5B7C6"/></linearGradient>
  <linearGradient id="coral" x1="40" y1="40" x2="204" y2="220" gradientUnits="userSpaceOnUse"><stop stop-color="#FF9DB1"/><stop offset="1" stop-color="#E74669"/></linearGradient>
  <linearGradient id="gold" x1="56" y1="42" x2="194" y2="216" gradientUnits="userSpaceOnUse"><stop stop-color="#FFE98A"/><stop offset="0.55" stop-color="#FFC94F"/><stop offset="1" stop-color="#E99724"/></linearGradient>
  <linearGradient id="teal" x1="48" y1="44" x2="204" y2="216" gradientUnits="userSpaceOnUse"><stop stop-color="#69E1D0"/><stop offset="1" stop-color="#139B9D"/></linearGradient>
  <linearGradient id="blue" x1="44" y1="32" x2="206" y2="224" gradientUnits="userSpaceOnUse"><stop stop-color="#B9F5FF"/><stop offset="0.55" stop-color="#58D9F2"/><stop offset="1" stop-color="#2687CF"/></linearGradient>
  <linearGradient id="purple" x1="56" y1="40" x2="196" y2="220" gradientUnits="userSpaceOnUse"><stop stop-color="#C5A5FF"/><stop offset="1" stop-color="#7157C8"/></linearGradient>
  <radialGradient id="glow"><stop stop-color="#FFF9B8"/><stop offset="0.45" stop-color="#FFD85E" stop-opacity=".8"/><stop offset="1" stop-color="#FFD85E" stop-opacity="0"/></radialGradient>
  <radialGradient id="bubble"><stop stop-color="#FFFFFF" stop-opacity=".7"/><stop offset=".45" stop-color="#9CEEFF" stop-opacity=".34"/><stop offset="1" stop-color="#44CBEF" stop-opacity=".16"/></radialGradient>
</defs>
<path d="M41 129c0-48 41-80 105-80 48 0 82 24 91 61l-8 52c-15 28-47 45-91 45-58 0-97-30-97-78Z" fill="url(#gold)" stroke="#9D5E27" stroke-width="7"/>
<path d="M69 84c38-28 94-27 130 0" stroke="white" stroke-opacity=".38" stroke-width="10" stroke-linecap="round"/>
<path d="M103 55V30h58v28" fill="url(#teal)" stroke="#176F75" stroke-width="7"/><path d="M125 30V14h50" stroke="#176F75" stroke-width="8" stroke-linecap="round"/>
<g fill="#BDF7FF" stroke="#176F75" stroke-width="6"><circle cx="102" cy="128" r="25"/><circle cx="160" cy="128" r="25"/></g>
<path d="M39 114 14 91v76l25-24M230 112l18 16-18 18" fill="url(#teal)" stroke="#176F75" stroke-width="7" stroke-linejoin="round"/>
<path d="M81 192q51 22 102-2" stroke="#E58A2B" stroke-width="9" stroke-linecap="round"/>
</svg>
