<svg width="256" height="256" viewBox="0 0 256 256" fill="none" xmlns="http://www.w3.org/2000/svg">
<defs>
  <linearGradient id="whale" x1="52" y1="48" x2="184" y2="206" gradientUnits="userSpaceOnUse"><stop stop-color="#55D9FF"/><stop offset="0.58" stop-color="#00BBF9"/><stop offset="1" stop-color="#087EBA"/></linearGradient>
  <linearGradient id="belly" x1="96" y1="118" x2="150" y2="205" gradientUnits="userSpaceOnUse"><stop stop-color="#FFF5F8"/><stop offset="1" stop-color="#F5B7C6"/></linearGradient>
  <linearGradient id="coral" x1="40" y1="40" x2="204" y2="220" gradientUnits="userSpaceOnUse"><stop stop-color="#FF9DB1"/><stop offset="1" stop-color="#E74669"/></linearGradient>
  <linearGradient id="gold" x1="56" y1="42" x2="194" y2="216" gradientUnits="userSpaceOnUse"><stop stop-color="#FFE98A"/><stop offset="0.55" stop-color="#FFC94F"/><stop offset="1" stop-color="#E99724"/></linearGradient>
  <linearGradient id="teal" x1="48" y1="44" x2="204" y2="216" gradientUnits="userSpaceOnUse"><stop stop-color="#69E1D0"/><stop offset="1" stop-color="#139B9D"/></linearGradient>
  <linearGradient id="blue" x1="44" y1="32" x2="206" y2="224" gradientUnits="userSpaceOnUse"><stop stop-color="#B9F5FF"/><stop offset="0.55" stop-color="#58D9F2"/><stop offset="1" stop-color="#2687CF"/></linearGradient>
  <linearGradient id="purple" x1="56" y1="40" x2="196" y2="220" gradientUnits="userSpaceOnUse"><stop stop-color="#C5A5FF"/><stop offset="1" stop-color="#7157C8"/></linearGradient>
  <radialGradient id="glow"><stop stop-color="#FFF9B8"/><stop offset="0.45" stop-color="#FFD85E" stop-opacity=".8"/><stop offset="1" stop-color="#FFD85E" stop-opacity="0"/></radialGradient>
  <radialGradient id="bubble"><stop stop-color="#FFFFFF" stop-opacity=".7"/><stop offset=".45" stop-color="#9CEEFF" stop-opacity=".34"/><stop offset="1" stop-color="#44CBEF" stop-opacity=".16"/></radialGradient>
</defs>
<path d="M128 24 223 79v110l-95 55-95-55V79l95-55Z" fill="url(#teal)" stroke="#176F75" stroke-width="7"/>
<path d="M128 45 204 89v88l-76 44-76-44V89l76-44Z" fill="white" fill-opacity=".92" stroke="#B9F2E4" stroke-width="6"/>
<circle cx="128" cy="133" r="54" fill="#DDF8FC"/><path d="M90 196h76" stroke="#FFD45E" stroke-width="8" stroke-linecap="round"/>
</svg>
