<svg width="256" height="256" viewBox="0 0 256 256" fill="none" xmlns="http://www.w3.org/2000/svg">
<defs>
  <linearGradient id="whale" x1="52" y1="48" x2="184" y2="206" gradientUnits="userSpaceOnUse"><stop stop-color="#55D9FF"/><stop offset="0.58" stop-color="#00BBF9"/><stop offset="1" stop-color="#087EBA"/></linearGradient>
  <linearGradient id="belly" x1="96" y1="118" x2="150" y2="205" gradientUnits="userSpaceOnUse"><stop stop-color="#FFF5F8"/><stop offset="1" stop-color="#F5B7C6"/></linearGradient>
  <linearGradient id="coral" x1="40" y1="40" x2="204" y2="220" gradientUnits="userSpaceOnUse"><stop stop-color="#FF9DB1"/><stop offset="1" stop-color="#E74669"/></linearGradient>
  <linearGradient id="gold" x1="56" y1="42" x2="194" y2="216" gradientUnits="userSpaceOnUse"><stop stop-color="#FFE98A"/><stop offset="0.55" stop-color="#FFC94F"/><stop offset="1" stop-color="#E99724"/></linearGradient>
  <linearGradient id="teal" x1="48" y1="44" x2="204" y2="216" gradientUnits="userSpaceOnUse"><stop stop-color="#69E1D0"/><stop offset="1" stop-color="#139B9D"/></linearGradient>
  <linearGradient id="blue" x1="44" y1="32" x2="206" y2="224" gradientUnits="userSpaceOnUse"><stop stop-color="#B9F5FF"/><stop offset="0.55" stop-color="#58D9F2"/><stop offset="1" stop-color="#2687CF"/></linearGradient>
  <linearGradient id="purple" x1="56" y1="40" x2="196" y2="220" gradientUnits="userSpaceOnUse"><stop stop-color="#C5A5FF"/><stop offset="1" stop-color="#7157C8"/></linearGradient>
  <radialGradient id="glow"><stop stop-color="#FFF9B8"/><stop offset="0.45" stop-color="#FFD85E" stop-opacity=".8"/><stop offset="1" stop-color="#FFD85E" stop-opacity="0"/></radialGradient>
  <radialGradient id="bubble"><stop stop-color="#FFFFFF" stop-opacity=".7"/><stop offset=".45" stop-color="#9CEEFF" stop-opacity=".34"/><stop offset="1" stop-color="#44CBEF" stop-opacity=".16"/></radialGradient>
</defs>
<path d="M77 95C39 91 23 62 38 40c29 3 52 22 61 50M179 95c38-4 54-33 39-55-29 3-52 22-61 50" fill="#B87845" stroke="#6F452E" stroke-width="8" stroke-linejoin="round"/>
<path d="M57 127c0-53 31-87 71-87s71 34 71 87c0 59-31 91-71 91s-71-32-71-91Z" fill="#D99A5E" stroke="#6F452E" stroke-width="8"/>
<path d="M78 80q50-38 100 0" stroke="#FFE4BC" stroke-opacity=".52" stroke-width="11" stroke-linecap="round"/>
<ellipse cx="128" cy="156" rx="43" ry="35" fill="#FFE4BC"/>
<circle cx="96" cy="121" r="9" fill="#3C302D"/><circle cx="160" cy="121" r="9" fill="#3C302D"/>
<path d="m128 143-14 10 14 12 14-12-14-10Z" fill="#3C302D"/>
<path d="M128 164q-13 20-27 5M128 164q13 20 27 5" stroke="#6F452E" stroke-width="6" stroke-linecap="round"/>
<path d="M114 181q14 24 28 0" fill="#F2839C" stroke="#6F452E" stroke-width="5" stroke-linejoin="round"/>
</svg>
