<svg width="256" height="256" viewBox="0 0 256 256" fill="none" xmlns="http://www.w3.org/2000/svg">
<defs>
  <linearGradient id="whale" x1="52" y1="48" x2="184" y2="206" gradientUnits="userSpaceOnUse"><stop stop-color="#55D9FF"/><stop offset="0.58" stop-color="#00BBF9"/><stop offset="1" stop-color="#087EBA"/></linearGradient>
  <linearGradient id="belly" x1="96" y1="118" x2="150" y2="205" gradientUnits="userSpaceOnUse"><stop stop-color="#FFF5F8"/><stop offset="1" stop-color="#F5B7C6"/></linearGradient>
  <linearGradient id="coral" x1="40" y1="40" x2="204" y2="220" gradientUnits="userSpaceOnUse"><stop stop-color="#FF9DB1"/><stop offset="1" stop-color="#E74669"/></linearGradient>
  <linearGradient id="gold" x1="56" y1="42" x2="194" y2="216" gradientUnits="userSpaceOnUse"><stop stop-color="#FFE98A"/><stop offset="0.55" stop-color="#FFC94F"/><stop offset="1" stop-color="#E99724"/></linearGradient>
  <linearGradient id="teal" x1="48" y1="44" x2="204" y2="216" gradientUnits="userSpaceOnUse"><stop stop-color="#69E1D0"/><stop offset="1" stop-color="#139B9D"/></linearGradient>
  <linearGradient id="blue" x1="44" y1="32" x2="206" y2="224" gradientUnits="userSpaceOnUse"><stop stop-color="#B9F5FF"/><stop offset="0.55" stop-color="#58D9F2"/><stop offset="1" stop-color="#2687CF"/></linearGradient>
  <linearGradient id="purple" x1="56" y1="40" x2="196" y2="220" gradientUnits="userSpaceOnUse"><stop stop-color="#C5A5FF"/><stop offset="1" stop-color="#7157C8"/></linearGradient>
  <radialGradient id="glow"><stop stop-color="#FFF9B8"/><stop offset="0.45" stop-color="#FFD85E" stop-opacity=".8"/><stop offset="1" stop-color="#FFD85E" stop-opacity="0"/></radialGradient>
  <radialGradient id="bubble"><stop stop-color="#FFFFFF" stop-opacity=".7"/><stop offset=".45" stop-color="#9CEEFF" stop-opacity=".34"/><stop offset="1" stop-color="#44CBEF" stop-opacity=".16"/></radialGradient>
</defs>
<g transform="translate(48.64 48.64) scale(0.62)">
<circle cx="128" cy="128" r="102" fill="url(#bubble)" stroke="white" stroke-width="7"/>
<path d="M67 78c24-32 68-43 101-22" stroke="white" stroke-width="13" stroke-linecap="round" opacity=".7"/>
<circle cx="99" cy="126" r="8" fill="#176C91"/><circle cx="158" cy="126" r="8" fill="#176C91"/>
<path d="M105 157q23 10 46 0" stroke="#E55C7A" stroke-width="6" stroke-linecap="round"/>
<circle cx="82" cy="145" r="10" fill="#FF9FB4" opacity=".55"/><circle cx="175" cy="145" r="10" fill="#FF9FB4" opacity=".55"/>
</g>
</svg>
